<?xml version="1.0" encoding="UTF-8" standalone="no"?>
<svg width="102px" height="103px" viewBox="0 0 102 103" version="1.1" xmlns="http://www.w3.org/2000/svg" xmlns:xlink="http://www.w3.org/1999/xlink" xmlns:sketch="http://www.bohemiancoding.com/sketch/ns">
    <!-- Generator: Sketch 3.0.4 (8054) - http://www.bohemiancoding.com/sketch -->
    <title>node-template</title>
    <desc>Created with Sketch.</desc>
    <defs></defs>
    <g id="Page-1" stroke="none" stroke-width="1" fill="none" fill-rule="evenodd" sketch:type="MSPage">
        <g id="node-template" sketch:type="MSLayerGroup" transform="translate(1.234929, -5.723291)">
            <g id="controls" transform="translate(-0.137846, 32.000000)" style="display: none;">
                <g id="remove" transform="translate(38.955422, 54.206729)" fill="#000000" sketch:type="MSShapeGroup">
                    <path d="M12.3694171,10.5324244 L18.9018159,3.4576976 C19.6324172,2.66677839 19.6324172,1.38436179 18.9018159,0.593442583 C18.1715262,-0.197476628 16.9867926,-0.197476628 16.257438,0.593442583 L9.72472759,7.66783179 L3.19232884,0.593105016 C2.4623509,-0.197476628 1.27792895,-0.197476628 0.547950997,0.593105016 C-0.182650332,1.38436179 -0.182650332,2.66677839 0.547950997,3.45736003 L7.08034974,10.5320868 L0.547950997,17.6068136 C-0.182650332,18.3980704 -0.182650332,19.6804869 0.547950997,20.470731 C0.912939971,20.8663594 1.39169579,21.0641736 1.87013992,21.0641736 C2.34858405,21.0641736 2.82733987,20.8663594 3.19232884,20.470731 L9.72472759,13.3963418 L16.2571263,20.470731 C16.6221153,20.8663594 17.1008711,21.0641736 17.5793153,21.0641736 C18.0577594,21.0641736 18.5365152,20.8663594 18.9015042,20.470731 C19.6321055,19.6798118 19.6321055,18.3973952 18.9015042,17.6068136 L12.3694171,10.5324244 L12.3694171,10.5324244 Z" id="Shape"></path>
                </g>
                <g id="add" transform="translate(10.051196, 52.764876)" fill="#000000" sketch:type="MSShapeGroup">
                    <path d="M17.5116631,8.63049631 L11.2338971,8.63049631 L11.2338971,1.79802006 C11.2338971,0.805213319 10.4937815,0 9.58185338,0 C8.66964992,0 7.92980969,0.805512989 7.92980969,1.79802006 L7.92980969,8.63049631 L1.65204369,8.63049631 C0.739840231,8.63049631 0,9.4360093 0,10.4285164 C0,11.4213231 0.739840231,12.2265364 1.65204369,12.2265364 L7.92980969,12.2265364 L7.92980969,19.0590127 C7.92980969,20.0518194 8.66964992,20.8570327 9.58185338,20.8570327 C10.4940568,20.8570327 11.2338971,20.0518194 11.2338971,19.0590127 L11.2338971,12.2265364 L17.5116631,12.2265364 C18.4238665,12.2265364 19.1637068,11.4210234 19.1637068,10.4285164 C19.1637068,9.43540996 18.4238665,8.63049631 17.5116631,8.63049631 L17.5116631,8.63049631 L17.5116631,8.63049631 Z" id="Shape"></path>
                </g>
                <g transform="translate(66.000000, 49.000000)" font-size="22.7786823" font-family="Helvetica" fill="#000000" sketch:type="MSTextLayer" font-weight="normal">
                    <text>
                        <tspan id="trunk-behavior" x="-0.4937427" y="22.8406613">R</tspan>
                    </text>
                </g>
                <g transform="translate(85.000000, 49.000000)" font-size="22.7786823" font-family="Helvetica" fill="#000000" sketch:type="MSTextLayer" font-weight="normal">
                    <text>
                        <tspan id="delete-min" x="0.2870819" y="22.8406613">P</tspan>
                    </text>
                </g>
                <g id="decimals" transform="translate(-0.083661, 0.484659)" stroke="#979797" fill="#D8D8D8" sketch:type="MSShapeGroup">
                    <path d="M10.7646017,22.1864066 L21.6304746,38.9724659 L-0.101271241,38.9724659 L10.7646017,22.1864066 Z" id="dec-decimals" transform="translate(10.898729, 30.686407) scale(1, -1) translate(-10.898729, -30.686407) "></path>
                    <path d="M10.7646017,-3.55271368e-15 L21.6304746,16.7860593 L-0.101271241,16.7860593 L10.7646017,-3.55271368e-15 Z" id="inc-decimals"></path>
                </g>
            </g>
            <g id="data" transform="translate(27.862154, 0.000000)">
                <rect id="container" stroke="#7C7C7C" stroke-width="0.950000048" fill="#FFFFFF" sketch:type="MSShapeGroup" x="-7.10542736e-15" y="23" width="64.4950633" height="58.5463422" rx="2.85000014"></rect>
                <g id="simulated" transform="translate(3.792380, 22.910290)" font-weight="normal" font-family="Helvetica" fill="#000000" font-size="17.4545455" sketch:type="MSTextLayer">
                    <g transform="translate(0.000000, 19.000000)">
                        <text>
                            <tspan id="min" x="-0.0130359288" y="16.4444575">00.00</tspan>
                        </text>
                    </g>
                    <g>
                        <text>
                            <tspan id="max" x="-0.0130359288" y="15.8607217">20.00</tspan>
                        </text>
                    </g>
                </g>
                <g transform="translate(35.884937, 58.409380)" font-family="Helvetica" fill="#000000" sketch:type="MSTextLayer">
                    <g id="weight-lbl" transform="translate(0.000000, 7.000000)" font-size="9.20930233" font-weight="bold">
                        <text>
                            <tspan x="0.08744655" y="8.9620171">X</tspan>
                        </text>
                    </g>
                    <g transform="translate(7.000000, 0.000000)" font-size="17.6067491" font-weight="normal">
                        <text>
                            <tspan id="weight" x="-0.4018619" y="18.1238288">1</tspan>
                        </text>
                    </g>
                </g>
                <g transform="translate(12.000000, 0.000000)" font-size="18" font-family="Helvetica" fill="#000000" sketch:type="MSTextLayer" font-weight="normal">
                    <text >
                        <tspan id="label" x="-0.1085466" y="17.9102115">EX 1</tspan>
                    </text>
                </g>
            </g>
        </g>
    </g>
</svg>
